<?xml version="1.0" encoding="utf-8"?><!-- Uploaded to: SVG Repo, www.svgrepo.com, Generator: SVG Repo Mixer Tools -->
<svg fill="#000000" width="800px" height="800px" viewBox="0 0 24 24" id="bench-press-2" data-name="Flat Color" xmlns="http://www.w3.org/2000/svg" class="icon flat-color"><path id="primary" d="M21,20V18a1,1,0,0,0,0-2H12.21L9,14.57V11a1,1,0,0,0-2,0v2.68L3.41,12.09a1,1,0,1,0-.82,1.82l.41.18V20a1,1,0,0,0,0,2H21a1,1,0,0,0,0-2ZM5,20V15l2,.89V20Zm4,0V16.76l2.59,1.15A1,1,0,0,0,12,18h7v2Z" style="fill: rgb(0, 0, 0);"></path><circle id="secondary" cx="8" cy="7" r="5" style="fill: rgb(44, 169, 188);"></circle><circle id="primary-2" data-name="primary" cx="8" cy="7" r="1.5" style="fill: rgb(0, 0, 0);"></circle></svg>